<?xml version="1.0" encoding="UTF-8" standalone="no"?>
<svg
   xmlns:dc="http://purl.org/dc/elements/1.1/"
   xmlns:cc="http://creativecommons.org/ns#"
   xmlns:rdf="http://www.w3.org/1999/02/22-rdf-syntax-ns#"
   xmlns:svg="http://www.w3.org/2000/svg"
   xmlns="http://www.w3.org/2000/svg"
   xmlns:sodipodi="http://sodipodi.sourceforge.net/DTD/sodipodi-0.dtd"
   xmlns:inkscape="http://www.inkscape.org/namespaces/inkscape"
   height="96"
   version="1.1"
   viewBox="0 0 96 96"
   width="96"
   id="svg829"
   sodipodi:docname="icon.svg"
   inkscape:version="0.92.4 (5da689c313, 2019-01-14)"
   inkscape:export-filename="C:\Users\AndrewHeberle\Documents\wp-jwt-auth\assets\jwt-auth-plugin-logo.png"
   inkscape:export-xdpi="128"
   inkscape:export-ydpi="128">
  <metadata
     id="metadata835">
    <rdf:RDF>
      <cc:Work
         rdf:about="">
        <dc:format>image/svg+xml</dc:format>
        <dc:type
           rdf:resource="http://purl.org/dc/dcmitype/StillImage" />
        <dc:title></dc:title>
      </cc:Work>
    </rdf:RDF>
  </metadata>
  <defs
     id="defs833" />
  <sodipodi:namedview
     pagecolor="#ffffff"
     bordercolor="#666666"
     borderopacity="1"
     objecttolerance="10"
     gridtolerance="10"
     guidetolerance="10"
     inkscape:pageopacity="0"
     inkscape:pageshadow="2"
     inkscape:window-width="3840"
     inkscape:window-height="1973"
     id="namedview831"
     showgrid="false"
     inkscape:zoom="14.089103"
     inkscape:cx="-1.6141104"
     inkscape:cy="43.424712"
     inkscape:window-x="-18"
     inkscape:window-y="3582"
     inkscape:window-maximized="1"
     inkscape:current-layer="svg829" />
  <g
     id="g4614"
     inkscape:export-filename="C:\Users\AndrewHeberle\Documents\WordPress\ah-jwt-auth-svn\assets\icon-256x256.png"
     inkscape:export-xdpi="256"
     inkscape:export-ydpi="256"
     transform="translate(12)">
    <path
       inkscape:connector-curvature="0"
       id="path4610"
       d="M 7.2396378,7.2434601 H 46.312389 L 66.043951,26.975022 V 88.937804 H 7.1331725 L 7.6654989,7.3499253"
       style="fill:#ffffff;fill-opacity:1;stroke:none;stroke-width:1px;stroke-linecap:butt;stroke-linejoin:miter;stroke-opacity:1" />
    <path
       inkscape:export-ydpi="128"
       inkscape:export-xdpi="128"
       style="fill:#3f82cd;fill-opacity:1;stroke:none;stroke-width:0.75590551;stroke-miterlimit:4;stroke-dasharray:none;stroke-opacity:1"
       inkscape:connector-curvature="0"
       d="m 71.700001,26.125003 c -0.175,-0.725001 -0.5,-1.25 -0.875,-1.700001 L 49.9,1.5 C 49.425,0.975 48.875,0.725 48.25,0.4 47.525,0.025 46.725,0 45.9,0 H 5.925 C 2.825,0 0,2.4 0,5.725 v 83.8 C 0,92.875 2.825,96 5.925,96 H 66.7 C 69.8,96 72,92.875 72,89.525 V 28.500003 c 0,-0.900001 -0.1,-1.550001 -0.299999,-2.375 z M 48.25,11.65 62.75,27.525002 H 48.25 Z M 8,88.025 v -80 h 32.25 v 20.425003 c 0,3.699998 3.35,7.074997 7.025,7.074997 H 64 v 52.5 z"
       id="path4574" />
  </g>
  <text
     xml:space="preserve"
     style="font-style:normal;font-weight:normal;font-size:19.36000061px;line-height:1.25;font-family:sans-serif;letter-spacing:0px;word-spacing:0px;fill:#000000;fill-opacity:1;stroke:none;stroke-width:0.484"
     x="28.030987"
     y="81.666138"
     id="text4586"
     inkscape:export-filename="C:\Users\AndrewHeberle\Documents\WordPress\ah-jwt-auth-svn\assets\icon-256x256.png"
     inkscape:export-xdpi="256"
     inkscape:export-ydpi="256"><tspan
       sodipodi:role="line"
       id="tspan4584"
       x="28.030987"
       y="81.666138"
       style="font-style:normal;font-variant:normal;font-weight:normal;font-stretch:normal;font-size:19.36000061px;font-family:Arial;-inkscape-font-specification:'Arial, Normal';font-variant-ligatures:normal;font-variant-caps:normal;font-variant-numeric:normal;font-feature-settings:normal;text-align:start;writing-mode:lr-tb;text-anchor:start;fill:#000000;fill-opacity:1;stroke:none;stroke-width:0.484">JWT</tspan></text>
  <g
     transform="matrix(15.91937,0,0,15.91937,52.838253,-4591.9243)"
     id="layer1-1"
     style="fill:#e77500;fill-opacity:1;stroke:#000000;stroke-width:0.08888889;stroke-miterlimit:4;stroke-dasharray:none;stroke-opacity:1"
     inkscape:export-xdpi="256"
     inkscape:export-ydpi="256"
     inkscape:export-filename="C:\Users\AndrewHeberle\Documents\WordPress\ah-jwt-auth-svn\assets\icon-256x256.png">
    <g
       id="g4563"
       transform="matrix(0.25,0,0,0.25,-1.3688952,218.27074)"
       style="fill:#e77500;fill-opacity:1;stroke:#000000;stroke-width:0.35555556;stroke-miterlimit:4;stroke-dasharray:none;stroke-opacity:1">
      <path
         inkscape:connector-curvature="0"
         d="m 4.2598912,288.80454 c -1.0214776,0 -1.8520833,0.83061 -1.8520833,1.85209 v 1.32291 H 1.8786412 c -0.1461193,2e-5 -0.2645687,0.11847 -0.2645833,0.26459 v 4.23333 c 1.46e-5,0.14612 0.118464,0.26457 0.2645833,0.26458 h 4.7625 c 0.1461193,-10e-6 0.2645688,-0.11846 0.2645833,-0.26458 v -4.23333 c -1.45e-5,-0.14612 -0.118464,-0.26457 -0.2645833,-0.26459 H 6.1119745 v -1.32291 c 0,-1.02148 -0.8306056,-1.85209 -1.8520833,-1.85209 z m 0,0.52917 c 0.7374723,0 1.3229167,0.58544 1.3229167,1.32292 v 1.32291 H 2.9369746 v -1.32291 c 0,-0.73748 0.5854443,-1.32292 1.3229166,-1.32292 z m -2.1166666,3.175 h 4.2333332 v 3.70417 H 2.1432246 Z"
         id="rect864"
         style="color:#000000;font-style:normal;font-variant:normal;font-weight:normal;font-stretch:normal;font-size:medium;line-height:normal;font-family:sans-serif;font-variant-ligatures:normal;font-variant-position:normal;font-variant-caps:normal;font-variant-numeric:normal;font-variant-alternates:normal;font-feature-settings:normal;text-indent:0;text-align:start;text-decoration:none;text-decoration-line:none;text-decoration-style:solid;text-decoration-color:#000000;letter-spacing:normal;word-spacing:normal;text-transform:none;writing-mode:lr-tb;direction:ltr;text-orientation:mixed;dominant-baseline:auto;baseline-shift:baseline;text-anchor:start;white-space:normal;shape-padding:0;clip-rule:nonzero;display:inline;overflow:visible;visibility:visible;opacity:1;isolation:auto;mix-blend-mode:normal;color-interpolation:sRGB;color-interpolation-filters:linearRGB;solid-color:#000000;solid-opacity:1;vector-effect:none;fill:#e77500;fill-opacity:1;fill-rule:nonzero;stroke:#000000;stroke-width:0.35555556;stroke-linecap:round;stroke-linejoin:round;stroke-miterlimit:4;stroke-dasharray:none;stroke-dashoffset:0;stroke-opacity:1;paint-order:stroke fill markers;color-rendering:auto;image-rendering:auto;shape-rendering:auto;text-rendering:auto;enable-background:accumulate" />
      <path
         inkscape:connector-curvature="0"
         d="m 4.4979169,294.36786 a 0.26458332,0.26458332 0 0 1 -0.2645833,0.26458 0.26458332,0.26458332 0 0 1 -0.2645833,-0.26458 0.26458332,0.26458332 0 0 1 0.2645833,-0.26458 0.26458332,0.26458332 0 0 1 0.2645833,0.26458 z"
         id="path877"
         style="opacity:1;fill:#e77500;fill-opacity:1;stroke:#000000;stroke-width:0.35555556;stroke-linecap:round;stroke-linejoin:round;stroke-miterlimit:4;stroke-dasharray:none;stroke-dashoffset:0;stroke-opacity:1;paint-order:stroke fill markers" />
    </g>
  </g>
</svg>
